<?xml version="1.0" encoding="utf-8"?>
<!-- Generator: Adobe Illustrator 24.0.1, SVG Export Plug-In . SVG Version: 6.00 Build 0)  -->
<svg version="1.1" id="Layer_1" xmlns="http://www.w3.org/2000/svg" xmlns:xlink="http://www.w3.org/1999/xlink" x="0px" y="0px"
	 viewBox="0 0 1152 648" style="enable-background:new 0 0 1152 648;" xml:space="preserve">
<style type="text/css">
	.st0{fill:#FF0000;stroke:#FF0000;stroke-miterlimit:10;}
	.st1{fill:#FF0000;}
	.st2{fill:none;}
	.st3{font-family:'TerminatorDarkFate';}
	.st4{font-size:115px;}
</style>
<g>
	<path d="M141.47,417.85l-5.62-4.85l-6.77-9.7l-2.3-6.77l-0.64-4.85l-0.64-53.11c0,0,0.77-15.7,11.36-23.87
		c10.6-8.17,15.45-9.32,15.45-9.32l39.19-17.87l33.57-11.49l24.89-6.64l42.89-9.57l29.62-4.09l37.53-3.83l39.32-2.04l41.62-17.49
		l51.06-20.17l19.02-6.64l19.15,7.79l12-2.43l17.11-2.81l27.19-1.4l48.89,0.13l22.21,1.79l53.74,6.64l29.11,5.87l22.21,5.23
		l24.13,6.51l34.34,11.62l20.3,7.53l16.21,8.43c0,0,5.87,2.94,6.26,3.19c0.38,0.26,5.49,4.98,5.49,4.98l-26.3,1.4l-88.6,8.94
		l-110.17,10.47l48-7.02l6.13-1.79l4.34-4.47l34.6-39.57l-15.06-3.06c0,0-10.09-2.3-10.85-2.3c-0.77,0-15.19-3.19-15.19-3.19
		l-15.7-2.94l-19.28-2.94l-9.57-1.28c0,0-68.68-3.45-93.19,0.26c-24.51,3.7-66.13,18-66.13,18l-34.98,15.32l-37.02,18l45.57,7.79
		l17.11,2.3l27.83,3.45l31.02,3.19l54.89,4.6l-50.55-0.64l-63.19-4.72L437,283.68l-47.23-3.45l-36-0.26l-37.02,2.3l-42.89,7.53
		l-37.4,12.38c0,0-29.49,14.04-36.13,19.28c-6.64,5.23-8.3,5.11-8.3,5.49c0,0.38-15.83,13.15-15.83,13.15l-14.04,15.83l-6.13,8.3
		c0,0-4.6,5.49-6.64,10.98s-5.31,8.05-8.17,24C138.35,415.16,141.47,417.85,141.47,417.85z"/>
	<path class="st0" d="M617.68,296.97l166.17-10.74l61.4-4.09l55.02-2.17l30.89,0.64l14.68,0.89l12,1.79l10.34,2.55l8.17,3.19
		l0.77-4.85l4.21-8.43l5.36-8.55l4.21-5.36l8.43-7.28l9.83-6.64l7.91-3.83l-16.98,1.79l-30.77,2.43l-16.6,2.43l-10.47,2.55
		c0,0-11.23,2.81-12.26,3.06c-1.02,0.26-8.81,3.96-8.81,3.96l-1.28,0.64l-14.04-5.62l-26.3-9.57l-40.98-13.79l-42.89-12.64
		L751.3,209l-41.23-8.17l-22.72-2.68l-43.79-3.7l-28.47-1.15l-30.13,0.89l-19.53,1.15l-20.68,2.68l-26.3,5.62l-7.4,1.91l19.15,7.79
		l29.11-5.23l27.19-1.4l48.89,0.13l22.21,1.79l53.74,6.64l29.11,5.87l22.21,5.23l24.13,6.51l34.34,11.62l20.3,7.53l22.47,11.62
		l5.49,4.98l4.98,5.62l-56.3,3.96L617.68,296.97z"/>
	<path class="st1" d="M149.77,423.89c0.2-0.01-1.21-8.14,1.36-18.38c1.81-7.22,4.75-12.12,8.17-17.7
		c6.47-10.58,13.63-18.18,18.72-22.98c9.59-9.02,18.25-14.07,24.85-17.87c5.37-3.09,20.2-11.27,41.53-17.02
		c14.81-3.99,26.29-5.08,36.09-5.96c20.3-1.82,36.27-0.82,56.17,0.51c13.01,0.87,16.56,1.52,28.43,2.55
		c21.69,1.89,37.62,2.08,68.6,2.38c36.38,0.35,64.07-0.36,82.55-0.85c12.47-0.33,30.28-0.82,53.96-2.04
		c13.53-0.7,30.45-1.57,52.6-3.4c13.27-1.1,17.99-1.68,32.68-2.72c13.5-0.96,16.99-1,29.96-2.04c11.99-0.96,14.14-1.33,26.55-2.38
		c0,0,15.47-1.31,30.81-2.21c39.21-2.32,73.19,0.17,73.19,0.17c41.72,3.05,73.32,10.96,84.6,13.96
		c28.49,7.56,49.2,16.11,60.77,21.28c14.23,6.35,26.26,11.81,40.51,22.3c14.2,10.45,24.63,21.5,25.02,21.11
		c0.36-0.37-8.52-10.01-15.66-17.02c-5.07-4.98-29.22-28.23-69.11-47.83c-5.04-2.48-47.22-22.81-97.53-28.26
		c-11.52-1.25-24.29-1.81-25.87-1.87c-12.04-0.51-25.62-0.59-54.3,1.02c-22.95,1.29-28.93,2.16-64.85,4.77
		c-2.52,0.18-26.27,1.9-40,2.72c-45.88,2.74-83.28,1.59-105.53,0.85c-47.83-1.58-86.03-5.53-104.68-7.49
		c-25.03-2.63-25.48-3.3-40-4.26c-45.42-2.99-79.13,1.03-91.57,2.72c-13.94,1.9-29.72,4.04-50.38,10.04
		c-20.86,6.06-46.63,13.8-73.02,34.04c-1.24,0.95-20.62,16.05-35.06,38.47c-4.14,6.43-7.62,13.06-9.36,21.62
		C147.53,413.93,149.54,423.9,149.77,423.89z"/>
</g>
<g>
	<rect x="445.66" y="388.23" class="st2" width="563.34" height="142.63"/>
	<text transform="matrix(1 0 0 1 452.6643 449.607)" class="st1 st3 st4">STALKER</text>
	<rect x="166.64" y="388.23" class="st2" width="318.97" height="142.63"/>
	<text transform="matrix(1 0 0 1 199.9276 449.608)" class="st3 st4">CAR</text>
</g>
</svg>
